HIERARCHY
ROOT Hips
{
	OFFSET 0.000000 0.000000 0.000000 
	CHANNELS 6 Xposition Yposition Zposition Yrotation Zrotation Xrotation 
	JOINT Lumbar
	{
		OFFSET 0.000000 0.000000 0.000000 
		CHANNELS 3 Zrotation Xrotation Yrotation
		JOINT Neck
		{
			OFFSET 0.000000 0.445665 0.000000 
			CHANNELS 3 Zrotation Xrotation Yrotation
			End Site
			{
				OFFSET 0.000000 0.227535 0.000000 
			}
		}
		JOINT RightShoulder
		{
			OFFSET 0.019635 0.377685 0.194865 
			CHANNELS 3 Zrotation Xrotation Yrotation
			JOINT RightElbow
			{
				OFFSET 0.000000 -0.243375 0.000000 
				CHANNELS 2 Zrotation Yrotation
				JOINT RightWrist
				{
					OFFSET 0.000000 -0.264825 0.000000 
					CHANNELS 2 Zrotation Xrotation
					End Site
					{
						OFFSET 0.006600 -0.176220 0.000990 
					}
				}
			}
		}
		JOINT LeftShoulder
		{
			OFFSET 0.019635 0.377685 -0.194865 
			CHANNELS 3 Zrotation Xrotation Yrotation
			JOINT LeftElbow
			{
				OFFSET 0.000000 -0.243375 0.000000 
				CHANNELS 2 Zrotation Yrotation
				JOINT LeftWrist
				{
					OFFSET 0.000000 -0.264825 0.000000 
					CHANNELS 2 Zrotation Xrotation
					End Site
					{
						OFFSET 0.006600 -0.176220 -0.000990 
					}
				}
			}
		}
	}
	JOINT RightHip
	{
		OFFSET 0.052140 -0.069960 0.075570 
		CHANNELS 3 Zrotation Xrotation Yrotation
		JOINT RightKnee
		{
			OFFSET 0.000000 -0.402270 0.000000 
			CHANNELS 1 Zrotation
			JOINT RightAnkle
			{
				OFFSET 0.000000 -0.404085 0.000000 
				CHANNELS 3 Zrotation Xrotation Yrotation
				End Site
				{
					OFFSET 0.204105 -0.089430 0.008415 
				}
			}
		}
	}
	JOINT LeftHip
	{
		OFFSET 0.052140 -0.069960 -0.075570 
		CHANNELS 3 Zrotation Xrotation Yrotation
		JOINT LeftKnee
		{
			OFFSET 0.000000 -0.402270 0.000000 
			CHANNELS 1 Zrotation
			JOINT LeftAnkle
			{
				OFFSET 0.000000 -0.404085 0.000000 
				CHANNELS 3 Zrotation Xrotation Yrotation
				End Site
				{
					OFFSET 0.204105 -0.089430 -0.008415 
				}
			}
		}
	}
}
MOTION
Frames: 33
Frame Time: 0.02
-0.00123 -0.0008 0.00069 27.51763 -30.81358 -5.66811 45.10937 0.91492 -4.65146 15.12422 -1.26853 -0.72744 7.14911 -10.48727 24.5266 34.38618 119.09918 13.95431 6.50345 13.76293 11.76486 -24.41017 40.52671 -90.56024 5.55212 -0.71306 44.39084 -0.13598 -5.96755 -19.81904 -6.68644 -3.19407 -3.79601 48.80972 4.92298 10.97147 -25.27112 -6.97572 0.8025 2.6568
-0.00062 -0.00073 9e-05 27.53901 -30.89762 -5.70622 45.23729 0.93605 -4.7556 14.55378 -1.23884 -0.73001 4.60032 -10.76125 21.67439 33.84509 116.38153 13.19219 5.9763 10.28755 11.89159 -22.84688 40.49268 -90.43624 5.29594 -0.86243 44.39219 -0.19407 -6.33286 -19.78738 -6.66935 -3.14957 -3.77149 48.84865 4.88325 10.74265 -25.27213 -6.96171 0.82718 2.66885
-1e-05 -0.00065 -0.00052 27.56018 -30.9815 -5.74422 45.36486 0.95716 -4.85927 13.98449 -1.20924 -0.73258 2.0567 -11.03502 18.8298 33.30603 113.67342 12.43314 5.45086 6.81969 12.01811 -21.28691 40.45894 -90.31435 5.04176 -1.01131 44.39367 -0.25203 -6.69734 -19.75575 -6.65233 -3.10515 -3.74702 48.88758 4.84361 10.51441 -25.27311 -6.94776 0.85182 2.68088
0.00061 -0.00058 -0.00112 27.58148 -31.0653 -5.78222 45.49239 0.97823 -4.96307 13.4157 -1.17964 -0.73514 -0.48474 -11.30827 15.98621 32.76667 110.96415 11.67345 4.92531 3.35446 12.14449 -19.72824 40.42504 -90.19108 4.78662 -1.16021 44.39503 -0.30995 -7.06158 -19.72417 -6.6353 -3.06078 -3.72257 48.9264 4.804 10.28627 -25.27412 -6.93381 0.87643 2.69289
0.00122 -0.0005 -0.00172 27.60304 -31.14922 -5.82032 45.62026 0.99929 -5.06738 12.84602 -1.14994 -0.73771 -3.03018 -11.58146 13.13538 32.22513 108.24541 10.91053 4.39811 -0.11696 12.27097 -18.16671 40.39076 -90.06486 4.5289 -1.30961 44.39623 -0.36799 -7.4265 -19.69259 -6.6182 -3.01635 -3.69809 48.96519 4.76431 10.05762 -25.27517 -6.91979 0.90108 2.70492
0.00183 -0.00043 -0.00231 27.62338 -31.23301 -5.85809 45.74718 1.02054 -5.16969 12.27758 -1.12058 -0.74027 -5.56969 -11.8564 10.30406 31.69129 105.56006 10.15972 3.87643 -3.57703 12.39752 -16.61007 40.35816 -89.95196 4.28208 -1.45741 44.39831 -0.42578 -7.78999 -19.66089 -6.60134 -2.97196 -3.67366 49.00445 4.7248 9.83029 -25.27601 -6.90598 0.92568 2.71693
0.00245 -0.00035 -0.00293 27.64619 -31.31696 -5.89649 45.87587 1.04136 -5.27595 11.70723 -1.09055 -0.74284 -8.11871 -12.12761 7.43687 31.14263 102.80934 9.38513 3.34401 -7.05636 12.52391 -15.04566 40.32226 -89.81291 4.01398 -1.60825 44.39855 -0.48401 -8.15605 -19.62944 -6.58402 -2.92753 -3.64914 49.04265 4.68496 9.60051 -25.27726 -6.89177 0.95034 2.72897
0.00306 -0.00028 -0.00352 27.66666 -31.40079 -5.9343 46.00292 1.0626 -5.3785 11.1387 -1.06116 -0.74541 -10.65828 -12.40207 4.60229 30.60747 100.12101 8.63289 2.82189 -10.51749 12.65024 -13.48774 40.28932 -89.697 3.76481 -1.75631 44.40063 -0.54182 -8.5196 -19.59779 -6.56713 -2.88315 -3.62471 49.08193 4.64543 9.37303 -25.27815 -6.87793 0.97496 2.74099
0.00364 -0.0002 -0.0041 27.68449 -31.4844 -5.97147 46.12806 1.08429 -5.47679 10.57183 -1.03246 -0.74797 -13.19054 -12.6815 1.80804 30.08933 97.49961 7.90614 2.31059 -13.96015 12.77742 -11.93953 40.26035 -89.61353 3.54166 -1.90093 44.40444 -0.59922 -8.88084 -19.56572 -6.55075 -2.83875 -3.60034 49.12214 4.60624 9.14809 -25.27851 -6.86455 0.99952 2.75298
0.00435 -0.00013 -0.00478 27.71816 -31.56907 -6.01255 46.26446 1.10321 -5.60042 9.9937 -0.99949 -0.75054 -15.77776 -12.93534 -1.21697 29.47479 94.46502 7.02718 1.73169 -17.52058 12.90249 -10.34069 40.2096 -89.35596 3.17746 -2.0652 44.39674 -0.65927 -9.25767 -19.53555 -6.53137 -2.79422 -3.57549 49.15586 4.56495 8.90772 -25.28167 -6.84853 1.02439 2.7651
0.00479 -4e-05 -0.00524 27.71803 -31.65163 -6.04524 46.37695 1.12809 -5.67007 9.44054 -0.97571 -0.7531 -18.2403 -13.24118 -3.75561 29.06269 92.32023 6.47291 1.29887 -20.82459 13.03018 -8.84562 40.20411 -89.45749 3.10523 -2.18811 44.41427 -0.71353 -9.60007 -19.50174 -6.51835 -2.75014 -3.55174 49.20399 4.52822 8.70045 -25.2791 -6.83809 1.04861 2.77697
0.00453 0.00013 -0.00514 27.62741 -31.72722 -6.05574 46.42407 1.16843 -5.59449 8.94695 -0.97602 -0.75555 -20.4287 -13.70835 -4.94015 29.21931 92.47924 6.78502 1.24036 -23.48231 13.18142 -7.66387 40.32955 -90.62044 3.88713 -2.19592 44.49389 -0.75354 -9.86021 -19.45492 -6.52289 -2.70561 -3.53028 49.28625 4.50307 8.58019 -25.25925 -6.84302 1.07086 2.78816
0.00398 0.00033 -0.0048 27.50255 -31.80083 -6.05765 46.4469 1.21486 -5.46435 8.48073 -0.98579 -0.75805 -22.47798 -14.22474 -5.63765 29.57677 93.5477 7.42473 1.33197 -25.86982 13.33295 -6.58225 40.49916 -92.12869 4.95145 -2.16268 44.60012 -0.78748 -10.08375 -19.40501 -6.5338 -2.66182 -3.51007 49.38399 4.48263 8.49373 -25.23393 -6.85355 1.09246 2.79912
0.00353 0.00051 -0.00455 27.39176 -31.8762 -6.06295 46.48097 1.25916 -5.35702 8.007 -0.99191 -0.76051 -24.54834 -14.70582 -6.57362 29.83369 94.30231 7.93441 1.37414 -28.34636 13.47282 -5.43455 40.64417 -93.43083 5.8532 -2.14905 44.69887 -0.82307 -10.31577 -19.35851 -6.54169 -2.61877 -3.48979 49.47817 4.46067 8.3945 -25.21214 -6.8615 1.11447 2.8102
0.00319 0.00073 -0.00438 27.28673 -31.94826 -6.07039 46.5151 1.30103 -5.25719 7.50988 -0.99517 -0.7628 -26.80205 -15.2397 -7.44562 30.13008 94.67843 8.37748 1.3435 -30.9738 13.65858 -4.36878 40.80844 -94.94629 6.90393 -2.13055 44.77839 -0.86316 -10.58118 -19.30356 -6.55008 -2.57121 -3.46741 49.55769 4.43626 8.285 -25.18595 -6.86961 1.13607 2.82121
0.00256 0.00086 -0.00399 27.16217 -32.02635 -6.07133 46.54214 1.34911 -5.12976 7.07125 -1.0068 -0.76575 -28.63375 -15.67771 -8.32372 30.39191 96.00887 9.02148 1.49233 -33.21176 13.75229 -3.16253 40.94299 -96.09306 7.70637 -2.11343 44.90406 -0.89267 -10.76957 -19.26548 -6.55898 -2.53316 -3.44968 49.67144 4.41789 8.20415 -25.16762 -6.87871 1.1583 2.83229
0.00123 0.00076 -0.00309 26.98723 -32.12495 -6.05677 46.56602 1.4154 -4.93149 6.75948 -1.03765 -0.76802 -29.39333 -15.81671 -9.441 30.50791 100.18295 10.27426 2.16741 -34.53161 13.55787 -1.4772 40.98486 -96.17897 7.79087 -2.10231 45.15241 -0.89244 -10.74364 -19.27482 -6.56747 -2.52184 -3.44472 49.87573 4.41664 8.20083 -25.17249 -6.88926 1.1829 2.84382
-0.00039 0.00056 -0.00198 26.79477 -32.229 -6.03592 46.58165 1.48727 -4.70885 6.51093 -1.0768 -0.77135 -29.72066 -15.86099 -10.56308 30.5822 105.21158 11.69465 3.00626 -35.44875 13.27424 0.34826 40.99517 -95.86726 7.60588 -2.09567 45.44592 -0.88209 -10.64325 -19.30124 -6.57631 -2.51997 -3.44435 50.11392 4.42108 8.22411 -25.18541 -6.90063 1.20805 2.85537
-0.0019 0.0004 -0.00095 26.61344 -32.32845 -6.01772 46.59422 1.55492 -4.50261 6.25162 -1.11328 -0.77592 -30.2088 -15.96405 -11.61429 30.67655 109.55806 12.94794 3.72459 -36.49447 13.05731 2.05607 41.01989 -95.71873 7.52373 -2.09185 45.71769 -0.87775 -10.58411 -19.31978 -6.58519 -2.51332 -3.44169 50.3368 4.42183 8.23059 -25.19458 -6.91154 1.23266 2.86678
-0.00332 0.00027 3e-05 26.41735 -32.43708 -6.00007 46.63473 1.62985 -4.27197 5.91697 -1.14576 -0.77351 -30.84796 -16.00513 -12.93463 30.77392 115.1508 14.58899 4.63867 -37.77339 12.74176 3.95656 41.04617 -95.68404 7.54626 -2.06524 45.99573 -0.86747 -10.49315 -19.33869 -6.59345 -2.50867 -3.43988 50.56005 4.42716 8.25736 -25.20403 -6.92293 1.25856 2.87876
-0.00501 4e-05 0.00117 26.24855 -32.52755 -5.97996 46.61536 1.69091 -4.08711 5.75444 -1.18802 -0.78554 -31.06492 -16.14874 -13.70674 30.85163 118.37125 15.46743 5.1871 -38.45842 12.59564 5.53004 41.06076 -95.27845 7.26813 -2.08879 46.27085 -0.86697 -10.45033 -19.36096 -6.60299 -2.50219 -3.43743 50.79008 4.42451 8.2487 -25.21478 -6.93353 1.2818 2.88952
-0.00737 -0.00045 0.00272 26.15736 -32.56963 -5.95404 46.43308 1.71189 -4.03459 6.0472 -1.25841 -0.8402 -30.27992 -16.62745 -12.92261 30.89171 114.54544 14.11454 4.64018 -37.74329 13.07198 5.80391 41.05391 -94.26454 6.3623 -2.23879 46.52858 -0.89816 -10.56701 -19.38797 -6.6161 -2.48749 -3.43171 51.03293 4.39614 8.12818 -25.22796 -6.94105 1.2984 2.89735
-0.01 -0.00105 0.00443 26.09485 -32.59267 -5.92601 46.19098 1.71876 -4.02917 6.51166 -1.33764 -0.90881 -29.07466 -17.20659 -11.59581 30.9114 108.34998 12.00201 3.72703 -36.42185 13.70131 5.79634 41.03566 -92.84565 5.14358 -2.4401 46.78131 -0.93919 -10.73342 -19.41784 -6.63045 -2.47078 -3.42525 51.28087 4.35999 7.9728 -25.24202 -6.94785 1.31208 2.90385
-0.01252 -0.0016 0.00607 26.02065 -32.62244 -5.89941 45.97598 1.73233 -4.00265 6.90042 -1.41081 -0.96907 -28.02463 -17.72113 -10.54809 30.93498 103.42472 10.29161 3.01106 -35.28353 14.16816 6.17563 41.02025 -91.38149 3.96784 -2.62694 47.03512 -0.97425 -10.87167 -19.44665 -6.64414 -2.45554 -3.41938 51.5249 4.32877 7.83755 -25.25521 -6.95537 1.3266 2.91071
-0.015 -0.00216 0.00769 25.93993 -32.66059 -5.87069 45.76057 1.74492 -3.97441 7.28177 -1.49324 -1.03782 -27.11106 -18.31408 -9.36692 30.97925 97.72045 8.34902 2.17244 -34.51092 15.00704 5.53076 41.01333 -90.80699 3.17173 -2.78181 47.29572 -1.01514 -11.03041 -19.47506 -6.65826 -2.43827 -3.41261 51.77707 4.29161 7.6832 -25.27076 -6.96118 1.34343 2.91872
-0.01761 -0.00273 0.0094 25.8801 -32.67659 -5.84586 45.53248 1.75607 -3.96071 7.71825 -1.55793 -1.09225 -25.8183 -18.76674 -8.33013 30.97696 93.05642 6.70491 1.49847 -32.85074 15.13022 6.86978 40.98684 -88.36971 1.55172 -3.00879 47.5402 -1.04654 -11.1597 -19.50472 -6.67176 -2.42464 -3.40749 52.01281 4.26522 7.56243 -25.2814 -6.97048 1.35447 2.92389
-0.02051 -0.00329 0.01131 25.86885 -32.63704 -5.83335 45.27933 1.76724 -3.98072 8.26695 -1.57519 -1.10315 -23.59056 -18.82498 -7.86431 30.84476 91.91173 6.09185 1.38247 -28.77795 13.04964 14.45659 40.90588 -80.17847 -2.59475 -3.48026 47.7428 -1.04769 -11.19211 -19.53751 -6.68318 -2.42135 -3.40699 52.20386 4.2674 7.51984 -25.27899 -6.98868 1.35296 2.92272
-0.02353 -0.00385 0.0133 25.87807 -32.57566 -5.82471 45.01634 1.77736 -4.01299 8.86454 -1.57352 -1.09927 -20.99676 -18.73563 -7.55422 30.66858 91.87946 5.80104 1.44146 -23.85473 10.2766 23.92448 40.80658 -70.25191 -7.50108 -4.01257 47.92886 -1.03928 -11.19415 -19.57128 -6.69395 -2.42175 -3.40816 52.37773 4.28093 7.51494 -25.2714 -7.01057 1.34539 2.91861
-0.0265 -0.00441 0.01524 25.87947 -32.5236 -5.81363 44.76105 1.78753 -4.03636 9.43808 -1.57808 -1.10254 -18.56588 -18.70297 -7.14812 30.51591 91.28859 5.34744 1.41043 -19.39606 7.94927 32.06287 40.71769 -61.59837 -11.83793 -4.47792 48.12132 -1.03641 -11.21278 -19.60432 -6.70503 -2.42054 -3.40861 52.55796 4.29165 7.50963 -25.2657 -7.03142 1.33861 2.915
-0.02947 -0.00497 0.01721 25.8758 -32.47335 -5.80524 44.49028 1.79885 -4.07512 10.02529 -1.5931 -1.10447 -16.1321 -18.71808 -6.83349 30.34442 90.83675 4.93454 1.41077 -14.58941 5.08578 42.16925 40.61878 -50.92244 -17.11545 -5.10745 48.31831 -1.02897 -11.22149 -19.63883 -6.71604 -2.41903 -3.40889 52.74425 4.29346 7.43858 -25.26212 -7.04966 1.33933 2.91457
-0.03246 -0.00552 0.01915 25.88692 -32.41448 -5.79233 44.24987 1.80791 -4.08452 10.59353 -1.58154 -1.10549 -13.62607 -18.59673 -6.36758 30.20595 90.3938 4.52564 1.3924 -10.30975 3.15793 48.65968 40.5376 -44.00566 -20.63107 -5.4133 48.50206 -1.02851 -11.2428 -19.6703 -6.72707 -2.41898 -3.4099 52.9141 4.31504 7.50627 -25.25272 -7.07407 1.32388 2.90721
-0.03545 -0.00603 0.021 25.93618 -32.33672 -5.7647 44.09866 1.80938 -4.00658 11.09574 -1.50258 -1.10768 -10.98684 -18.13954 -5.4891 30.13584 89.68375 4.03268 1.27853 -7.7311 4.10999 44.41961 40.49975 -48.30133 -18.90924 -4.7712 48.65284 -1.05086 -11.30821 -19.69471 -6.73788 -2.42269 -3.41278 53.03973 4.40283 8.01662 -25.22986 -7.11616 1.25747 2.87796
-0.03845 -0.00653 0.02282 25.99905 -32.25127 -5.73266 43.97786 1.80901 -3.89926 11.57685 -1.39721 -1.10945 -8.29464 -17.54876 -4.4474 30.10701 88.95999 3.53982 1.14183 -5.70925 6.00391 36.52819 40.48161 -56.36894 -15.41922 -3.80835 48.79113 -1.08035 -11.38682 -19.71583 -6.74882 -2.42766 -3.41629 53.15001 4.50801 8.65514 -25.20111 -7.16413 1.17618 2.84238
